<svg width="229" height="44" viewBox="0 0 229 44" fill="none" xmlns="http://www.w3.org/2000/svg">
<path d="M45.6443 10.0459H42.1422V33.9999H64.4401L66.2305 31.0587H45.6443V10.0459Z" fill="#E6E6E6"/>
<path d="M76.1682 20.3795L65.2438 10.0459H60.165L74.4847 23.4771V33.9999H77.9869V23.4735L92.2568 10.0459H87.2278L76.1682 20.3795Z" fill="#E6E6E6"/>
<path d="M94.1975 12.9776H106.947V33.9999H110.44V12.9776H121.59L123.378 10.0459H94.1975V12.9776Z" fill="#E6E6E6"/>
<path d="M152.335 16.5688C152.335 12.4805 148.811 10.0454 142.905 10.0454H127.628V12.9777H142.426C147.941 12.9777 148.644 14.9001 148.644 16.5688C148.644 18.2591 147.94 20.206 142.426 20.206H127.628V34H131.13V23.1442H142.214L149.344 34H153.434L145.917 22.9037C150.061 21.7989 152.335 19.5715 152.335 16.5688Z" fill="#E6E6E6"/>
<path d="M184.794 10.0459H159.626V13.0939H183.007L184.794 10.0459Z" fill="#E6E6E6"/>
<path d="M180.559 20.4688H159.626V23.5198H178.763L180.559 20.4688Z" fill="#E6E6E6"/>
<path d="M159.626 33.9543H183.242L185.029 30.9033H159.626V33.9543Z" fill="#E6E6E6"/>
<path d="M10 13.0954H35.1722L36.9589 10.0474H10V13.0954Z" fill="#E6E6E6"/>
<path d="M10 21.4846V23.5263V34.0002H13.1409V23.5263H30.9284L32.7157 20.4688H10V21.4846Z" fill="#E6E6E6"/>
<path d="M206.677 21.9755L206.859 21.7989L219 10H214.567L204.642 19.6443L204.461 19.8198L194.346 10H189.907L202.238 21.9755L189.907 33.954H194.346L204.458 24.1313L204.642 24.3092L214.567 33.954H219L206.859 22.1528L206.677 21.9755Z" fill="#E6E6E6"/>
</svg>
