<svg width="200" height="24" viewBox="0 0 200 24" fill="none" xmlns="http://www.w3.org/2000/svg">
<path d="M34.1094 0.543945H30.758V23.4999H52.0958L53.8091 20.6812H34.1094V0.543945Z" fill="#242424"/>
<path d="M63.3189 10.447L52.8649 0.543945H48.0049L61.7079 13.4155V23.4999H65.0593V13.4121L78.7147 0.543945H73.9022L63.3189 10.447Z" fill="#242424"/>
<path d="M80.5719 3.35345H92.7727V23.4999H96.1147V3.35345H106.785L108.495 0.543945H80.5719V3.35345Z" fill="#242424"/>
<path d="M136.206 6.79458C136.206 2.8766 132.834 0.542969 127.182 0.542969H112.563V3.35305H126.723C132.001 3.35305 132.674 5.19536 132.674 6.79458C132.674 8.41439 132 10.2802 126.723 10.2802H112.563V23.4995H115.913V13.096H126.521L133.344 23.4995H137.257L130.065 12.8654C134.03 11.8067 136.206 9.67215 136.206 6.79458Z" fill="#242424"/>
<path d="M167.267 0.543945H143.182V3.46499H165.557L167.267 0.543945Z" fill="#242424"/>
<path d="M163.215 10.5322H143.182V13.4561H161.496L163.215 10.5322Z" fill="#242424"/>
<path d="M143.182 23.4561H165.782L167.492 20.5322H143.182V23.4561Z" fill="#242424"/>
<path d="M0 3.46596H24.0882L25.798 0.544922H0V3.46596Z" fill="#242424"/>
<path d="M0 11.5057V13.4624V23.4999H3.00566V13.4624H20.0272L21.7376 10.5322H0V11.5057Z" fill="#242424"/>
<path d="M188.208 11.9765L188.382 11.8072L200 0.5H195.758L186.26 9.74243L186.088 9.91059L176.407 0.5H172.16L183.96 11.9765L172.16 23.4559H176.407L186.085 14.0425L186.26 14.2129L195.758 23.4559H200L188.382 12.1464L188.208 11.9765Z" fill="#242424"/>
</svg>
