<svg width="450" height="259" viewBox="0 0 450 259" fill="none" xmlns="http://www.w3.org/2000/svg">
<rect width="450" height="259" fill="white"/>
<path opacity="0.7" fill-rule="evenodd" clip-rule="evenodd" d="M269.874 225.235C264.856 225.272 260.603 223.895 256.731 221.169C245.441 213.221 234.115 205.323 222.804 197.405C182.333 169.073 141.863 140.741 101.392 112.408C100.585 111.842 99.7418 111.318 98.9857 110.689C98.0931 109.948 97.1822 109.193 96.445 108.305C93.3869 104.625 93.1985 99.7958 95.8742 95.8234C97.1027 93.9995 98.7328 92.6258 100.625 91.5387C103.656 89.7969 106.682 88.0467 109.715 86.3076C128.611 75.471 147.513 64.644 166.401 53.7929C168.985 52.308 171.625 51.0787 174.619 50.6238C179.995 49.8067 184.925 50.7972 189.511 53.7593C204.271 63.2938 219.059 72.7847 233.836 82.2922C271.006 106.207 308.176 130.12 345.344 154.038C346.55 154.814 347.777 155.567 348.918 156.431C351.34 158.262 353.139 160.559 353.905 163.562C355.011 167.894 353.701 171.53 350.608 174.579C349.66 175.514 348.526 176.278 347.416 177.031C328.563 189.804 309.7 202.562 290.839 215.324C287.72 217.435 284.591 219.53 281.487 221.661C277.894 224.127 273.918 225.279 269.874 225.235" fill="#E6E6E6"/>
<mask id="path-2-outside-1" maskUnits="userSpaceOnUse" x="93" y="33" width="265" height="179" fill="black">
<rect fill="white" x="93" y="33" width="265" height="179"/>
<path fill-rule="evenodd" clip-rule="evenodd" d="M270.874 209.887C265.856 209.923 261.603 208.547 257.731 205.821C246.441 197.872 235.115 189.975 223.804 182.056C183.333 153.724 142.863 125.392 102.392 97.0593C101.585 96.4938 100.742 95.9692 99.9857 95.3408C99.0931 94.5989 98.1822 93.8439 97.445 92.9567C94.3869 89.2766 94.1985 84.4472 96.8742 80.4747C98.1027 78.6509 99.7328 77.2772 101.625 76.19C104.656 74.4483 107.682 72.698 110.715 70.959C129.611 60.1224 148.513 49.2954 167.401 38.4443C169.985 36.9593 172.625 35.7301 175.619 35.2751C180.995 34.4581 185.925 35.4485 190.511 38.4106C205.271 47.9452 220.059 57.4361 234.836 66.9436C272.006 90.858 309.176 114.772 346.344 138.689C347.55 139.465 348.777 140.219 349.918 141.082C352.34 142.914 354.139 145.21 354.905 148.213C356.011 152.545 354.701 156.181 351.608 159.23C350.66 160.165 349.526 160.93 348.416 161.682C329.563 174.455 310.7 187.214 291.839 199.976C288.72 202.086 285.591 204.182 282.487 206.313C278.894 208.779 274.918 209.93 270.874 209.887"/>
</mask>
<path fill-rule="evenodd" clip-rule="evenodd" d="M270.874 209.887C265.856 209.923 261.603 208.547 257.731 205.821C246.441 197.872 235.115 189.975 223.804 182.056C183.333 153.724 142.863 125.392 102.392 97.0593C101.585 96.4938 100.742 95.9692 99.9857 95.3408C99.0931 94.5989 98.1822 93.8439 97.445 92.9567C94.3869 89.2766 94.1985 84.4472 96.8742 80.4747C98.1027 78.6509 99.7328 77.2772 101.625 76.19C104.656 74.4483 107.682 72.698 110.715 70.959C129.611 60.1224 148.513 49.2954 167.401 38.4443C169.985 36.9593 172.625 35.7301 175.619 35.2751C180.995 34.4581 185.925 35.4485 190.511 38.4106C205.271 47.9452 220.059 57.4361 234.836 66.9436C272.006 90.858 309.176 114.772 346.344 138.689C347.55 139.465 348.777 140.219 349.918 141.082C352.34 142.914 354.139 145.21 354.905 148.213C356.011 152.545 354.701 156.181 351.608 159.23C350.66 160.165 349.526 160.93 348.416 161.682C329.563 174.455 310.7 187.214 291.839 199.976C288.72 202.086 285.591 204.182 282.487 206.313C278.894 208.779 274.918 209.93 270.874 209.887" fill="white"/>
<path d="M257.731 205.821L258.882 204.185L258.882 204.185L257.731 205.821ZM223.804 182.056L224.951 180.418L224.951 180.418L223.804 182.056ZM102.392 97.0593L103.539 95.4209L103.539 95.4208L102.392 97.0593ZM99.9857 95.3408L98.7072 96.8789L98.7074 96.879L99.9857 95.3408ZM97.445 92.9567L98.9833 91.6785L98.9832 91.6785L97.445 92.9567ZM96.8742 80.4747L98.533 81.592L98.5331 81.592L96.8742 80.4747ZM101.625 76.19L102.621 77.9242L102.621 77.9241L101.625 76.19ZM110.715 70.959L111.71 72.694L111.71 72.6939L110.715 70.959ZM167.401 38.4443L168.397 40.1785L168.397 40.1784L167.401 38.4443ZM175.619 35.2751L175.318 33.2978L175.318 33.2979L175.619 35.2751ZM190.511 38.4106L191.596 36.7307L191.596 36.7307L190.511 38.4106ZM234.836 66.9436L235.918 65.2616L235.918 65.2616L234.836 66.9436ZM346.344 138.689L345.262 140.371L345.262 140.371L346.344 138.689ZM349.918 141.082L348.712 142.677L348.712 142.678L349.918 141.082ZM354.905 148.213L356.843 147.719L356.843 147.718L354.905 148.213ZM351.608 159.23L353.012 160.655L353.013 160.655L351.608 159.23ZM348.416 161.682L347.294 160.026L347.294 160.026L348.416 161.682ZM291.839 199.976L292.96 201.632L292.96 201.632L291.839 199.976ZM282.487 206.313L281.355 204.664L281.355 204.664L282.487 206.313ZM270.859 207.887C266.259 207.92 262.414 206.671 258.882 204.185L256.58 207.456C260.793 210.422 265.453 211.926 270.888 211.887L270.859 207.887ZM258.882 204.185C247.59 196.235 236.258 188.333 224.951 180.418L222.657 183.694C233.972 191.616 245.293 199.509 256.58 207.456L258.882 204.185ZM224.951 180.418C184.48 152.086 144.01 123.754 103.539 95.4209L101.245 98.6977C141.716 127.03 182.186 155.363 222.657 183.694L224.951 180.418ZM103.539 95.4208C102.611 94.7713 101.936 94.3613 101.264 93.8026L98.7074 96.879C99.5473 97.577 100.558 98.2163 101.246 98.6978L103.539 95.4208ZM101.264 93.8028C100.343 93.0373 99.5817 92.3987 98.9833 91.6785L95.9067 94.2349C96.7827 95.2891 97.8431 96.1606 98.7072 96.8789L101.264 93.8028ZM98.9832 91.6785C96.5065 88.698 96.3414 84.8458 98.533 81.592L95.2154 79.3574C92.0556 84.0486 92.2672 89.8551 95.9068 94.235L98.9832 91.6785ZM98.5331 81.592C99.5555 80.074 100.933 78.8939 102.621 77.9242L100.629 74.4559C98.5321 75.6605 96.6499 77.2278 95.2154 79.3574L98.5331 81.592ZM102.621 77.9241C105.662 76.1767 108.675 74.4344 111.71 72.694L109.72 69.224C106.69 70.9617 103.65 72.7199 100.628 74.4559L102.621 77.9241ZM111.71 72.6939C130.605 61.858 149.509 51.0301 168.397 40.1785L166.404 36.7101C147.518 47.5607 128.618 58.3868 109.72 69.224L111.71 72.6939ZM168.397 40.1784C170.896 38.7426 173.285 37.6529 175.919 37.2524L175.318 33.2979C171.966 33.8073 169.074 35.1761 166.404 36.7101L168.397 40.1784ZM175.919 37.2524C180.83 36.5061 185.265 37.4029 189.425 40.0906L191.596 36.7307C186.586 33.4942 181.159 32.4101 175.318 33.2978L175.919 37.2524ZM189.425 40.0906C204.187 49.6265 218.979 59.1197 233.754 68.6256L235.918 65.2616C221.138 55.7525 206.354 46.2639 191.596 36.7307L189.425 40.0906ZM233.754 68.6255C270.924 92.54 308.094 116.454 345.262 140.371L347.426 137.007C310.258 113.09 273.088 89.176 235.918 65.2616L233.754 68.6255ZM345.262 140.371C346.517 141.178 347.649 141.873 348.712 142.677L351.125 139.487C349.905 138.564 348.583 137.751 347.426 137.007L345.262 140.371ZM348.712 142.678C350.86 144.302 352.337 146.24 352.967 148.708L356.843 147.718C355.94 144.18 353.819 141.525 351.125 139.487L348.712 142.678ZM352.967 148.708C353.873 152.255 352.865 155.182 350.204 157.806L353.013 160.655C356.536 157.18 358.149 152.836 356.843 147.719L352.967 148.708ZM350.205 157.806C349.41 158.589 348.436 159.252 347.294 160.026L349.538 163.338C350.616 162.607 351.91 161.742 353.012 160.655L350.205 157.806ZM347.294 160.026C328.441 172.799 309.579 185.557 290.718 198.319L292.96 201.632C311.82 188.87 330.684 176.111 349.538 163.338L347.294 160.026ZM290.718 198.319C287.61 200.422 284.466 202.528 281.355 204.664L283.618 207.962C286.716 205.836 289.83 203.75 292.96 201.632L290.718 198.319ZM281.355 204.664C278.104 206.895 274.531 207.926 270.895 207.887L270.852 211.887C275.305 211.935 279.684 210.662 283.618 207.962L281.355 204.664Z" fill="#242424" mask="url(#path-2-outside-1)"/>
<mask id="mask0" mask-type="alpha" maskUnits="userSpaceOnUse" x="102" y="39" width="249" height="163">
<path fill-rule="evenodd" clip-rule="evenodd" d="M162.195 48.0924C162.933 47.5434 163.391 47.1301 163.912 46.8265C166.861 45.1103 169.785 43.3467 172.792 41.7377C178.226 38.8297 183.626 38.8913 188.868 42.2658C204.043 52.0353 219.209 61.8189 234.378 71.5993C271.128 95.2961 307.878 118.994 344.627 142.693C345.307 143.131 346.003 143.548 346.643 144.038C347.282 144.526 347.925 145.037 348.453 145.637C350.772 148.274 350.577 151.403 347.954 153.732C347.286 154.325 346.531 154.827 345.787 155.327C324.24 169.789 302.68 184.233 281.148 198.718C278.3 200.634 275.277 201.751 271.824 201.691C268.589 201.635 265.641 200.737 262.98 198.884C259.002 196.112 255.013 193.355 251.029 190.59C203.524 157.613 156.018 124.636 108.514 91.6576C107.629 91.0432 106.744 90.4269 105.872 89.7949C105.436 89.4795 105 89.1555 104.611 88.7863C102.257 86.5538 102.175 83.7588 104.448 81.4327C105.067 80.7991 105.809 80.2528 106.575 79.8012C109.9 77.8398 113.262 75.9425 116.593 73.9904C117.69 73.3473 118.698 73.2244 119.875 73.8696C123.28 75.7354 126.602 75.2629 129.856 73.3774C137.547 68.9218 145.251 64.4892 152.95 60.0464C155.827 58.3859 158.716 56.7458 161.571 55.0474C162.411 54.5474 163.233 53.9611 163.918 53.27C164.887 52.2933 164.894 51.1995 164.051 50.1117C163.564 49.4837 162.976 48.9342 162.195 48.0924" fill="white"/>
</mask>
<g mask="url(#mask0)">
<path fill-rule="evenodd" clip-rule="evenodd" d="M96.1508 85.6401L180.02 37.415L355.293 150.144L270.812 207.224L96.1508 85.6401Z" fill="#FFD249"/>
</g>
<path d="M191.219 79.6706L188.971 78.1309L178.439 93.5078L192.753 103.311L195.195 102.21L181.981 93.1595L191.219 79.6706Z" fill="#242424"/>
<path d="M206.27 99.7241L203.801 88.2876L200.54 86.0547L203.828 100.972L199.201 107.727L201.449 109.267L206.077 102.51L221.141 100.164L217.913 97.9529L206.27 99.7241Z" fill="#242424"/>
<path d="M221.098 102.899L229.283 108.504L220.04 121.999L222.282 123.535L231.525 110.04L238.682 114.942L241.119 113.846L222.387 101.017L221.098 102.899Z" fill="#242424"/>
<path d="M256.84 130.765C258.637 128.141 257.446 125.028 253.655 122.432L243.847 115.715L242.558 117.597L252.057 124.103C255.598 126.528 255.204 128.071 254.47 129.142C253.727 130.227 252.419 131.168 248.879 128.743L239.38 122.237L233.316 131.092L235.563 132.632L240.336 125.663L247.452 130.536L247.256 140.64L249.881 142.438L249.935 132.01C253.08 133.123 255.519 132.693 256.84 130.765Z" fill="#242424"/>
<path d="M280.544 140.848L264.387 129.783L263.047 131.739L278.057 142.019L280.544 140.848Z" fill="#242424"/>
<path d="M273.243 145.677L259.805 136.473L258.464 138.432L270.749 146.846L273.243 145.677Z" fill="#242424"/>
<path d="M253.876 145.13L269.036 155.514L271.525 154.341L255.218 143.172L253.876 145.13Z" fill="#242424"/>
<path d="M166.997 65.9567L183.156 77.0237L185.643 75.8526L168.337 64L166.997 65.9567Z" fill="#242424"/>
<path d="M163.309 71.3415L162.411 72.6522L157.806 79.3758L159.822 80.7567L164.427 74.0332L175.846 81.8535L178.337 80.6765L163.755 70.6895L163.309 71.3415Z" fill="#242424"/>
<path d="M289.347 158.127L289.541 158.094L302.522 155.857L299.677 153.908L289.065 155.736L288.872 155.769L286.696 145.018L283.846 143.066L286.497 156.175L273.315 158.443L276.164 160.395L286.975 158.535L287.014 158.73L289.145 169.285L291.991 171.234L289.386 158.321L289.347 158.127Z" fill="#242424"/>
<g filter="url(#filter0_d)">
<rect x="68" y="47" width="49.7783" height="49.8979" rx="6.86914" fill="white"/>
<path d="M104.977 67.6633L105.601 67.2812L105.18 66.6825C103.783 64.6949 101.454 63.4372 99.0214 63.3534C97.674 63.2192 96.3861 63.6225 95.3539 64.0106C95.0961 64.1075 94.8714 64.1965 94.6619 64.2795C94.4142 64.3777 94.1878 64.4674 93.9532 64.5517C93.5335 64.7025 93.2617 64.7672 93.0893 64.7672C92.8969 64.7672 92.636 64.7106 92.2761 64.5875C92.0157 64.4985 91.7445 64.39 91.4415 64.2688C91.3259 64.2226 91.2056 64.1744 91.0795 64.1248C90.2063 63.7814 89.126 63.3945 87.9732 63.4181L87.9732 63.4181L87.9652 63.4183C85.1124 63.5101 82.4569 65.1212 81.0661 67.6063C79.5913 70.1529 79.4297 73.2443 79.9412 76.133C80.454 79.0286 81.6566 81.8055 83.0215 83.7915L83.0215 83.7915L83.0255 83.7972C83.6758 84.7233 84.4245 85.7692 85.2816 86.5704C86.1399 87.3727 87.1946 88.0127 88.4593 87.966L88.4623 87.9659C89.499 87.9231 90.2484 87.6081 90.9115 87.3295C90.9669 87.3062 91.0217 87.2832 91.0759 87.2607C91.7683 86.9726 92.4447 86.721 93.4948 86.721C94.5242 86.721 95.1771 86.9862 95.8781 87.2833C95.8992 87.2923 95.9204 87.3013 95.9418 87.3104C96.6452 87.6091 97.4368 87.9453 98.5856 87.9193C99.8579 87.8981 100.87 87.3244 101.702 86.55C102.519 85.7902 103.206 84.7973 103.833 83.8638C104.814 82.4767 105.569 80.9439 106.07 79.322L106.254 78.7276L105.681 78.4861C103.462 77.5517 101.978 75.3237 101.973 72.9285C102.003 70.7999 103.154 68.7796 104.977 67.6633ZM99.6848 56.5645L99.6307 55.8605L98.9285 55.934C97.0045 56.1353 95.2266 57.0511 93.9494 58.5C92.6917 59.9257 92.0384 61.8375 92.1622 63.7324L92.2037 64.368L92.8406 64.3745C94.8017 64.3946 96.7234 63.4911 97.9548 61.9688C99.2145 60.4603 99.8353 58.5219 99.6848 56.5645Z" fill="white" stroke="#242424" stroke-width="1.37383"/>
<rect x="69" y="48" width="47.7783" height="47.8979" rx="5.86914" stroke="#242424" stroke-width="2"/>
</g>
<g filter="url(#filter1_d)">
<rect x="333" y="124" width="49.596" height="52.4865" rx="6.86914" fill="white"/>
<path d="M369.701 148.175L364.297 145.107C364.29 145.103 364.284 145.099 364.277 145.095L348.083 135.903C348.083 135.903 348.083 135.903 348.083 135.903C347.079 135.333 346.017 135.284 345.267 135.93C345.25 135.943 345.232 135.958 345.216 135.974L345.189 136.001C345.177 136.013 345.164 136.025 345.152 136.037L345.134 136.055C345.129 136.06 345.125 136.064 345.121 136.069C344.677 136.538 344.46 137.217 344.46 137.996V162.49C344.46 163.271 344.677 163.948 345.121 164.418C345.123 164.42 345.126 164.423 345.128 164.426C345.872 165.204 347.011 165.192 348.083 164.585L348.083 164.585L364.184 155.444L364.272 155.395L364.272 155.395L364.277 155.392L369.701 152.313L369.702 152.313C370.574 151.817 371.136 151.087 371.136 150.244C371.136 149.4 370.574 148.671 369.701 148.175L369.701 148.175Z" fill="white" stroke="#242424" stroke-width="1.08052" stroke-linejoin="round"/>
<g filter="url(#filter2_ii)">
<path d="M345.513 136.44C345.191 136.781 345 137.311 345 137.996V162.491C345 163.177 345.191 163.706 345.513 164.047L345.595 164.126L359.329 150.405V150.243V150.082L345.595 136.359L345.513 136.44Z" fill="url(#paint0_linear)"/>
<path d="M363.906 154.98L359.329 150.404V150.243V150.081L363.907 145.507L364.01 145.566L369.434 148.644C370.983 149.524 370.983 150.963 369.434 151.843L364.01 154.922L363.906 154.98Z" fill="url(#paint1_linear)"/>
<g filter="url(#filter3_i)">
<path d="M364.01 154.921L359.328 150.243L345.513 164.046C346.023 164.586 346.867 164.653 347.817 164.115L364.01 154.921Z" fill="url(#paint2_linear)"/>
</g>
<path d="M364.01 145.565L347.817 136.372C346.867 135.833 346.023 135.9 345.513 136.441L359.329 150.244L364.01 145.565Z" fill="url(#paint3_linear)"/>
</g>
<rect x="334" y="125" width="47.596" height="50.4865" rx="5.86914" stroke="#242424" stroke-width="2"/>
</g>
<defs>
<filter id="filter0_d" x="65.9393" y="47" width="51.8391" height="51.9586" filterUnits="userSpaceOnUse" color-interpolation-filters="sRGB">
<feFlood flood-opacity="0" result="BackgroundImageFix"/>
<feColorMatrix in="SourceAlpha" type="matrix" values="0 0 0 0 0 0 0 0 0 0 0 0 0 0 0 0 0 0 127 0" result="hardAlpha"/>
<feOffset dx="-2.06074" dy="2.06074"/>
<feComposite in2="hardAlpha" operator="out"/>
<feColorMatrix type="matrix" values="0 0 0 0 0 0 0 0 0 0 0 0 0 0 0 0 0 0 0.1 0"/>
<feBlend mode="multiply" in2="BackgroundImageFix" result="effect1_dropShadow"/>
<feBlend mode="normal" in="SourceGraphic" in2="effect1_dropShadow" result="shape"/>
</filter>
<filter id="filter1_d" x="330.939" y="124" width="51.6567" height="54.5472" filterUnits="userSpaceOnUse" color-interpolation-filters="sRGB">
<feFlood flood-opacity="0" result="BackgroundImageFix"/>
<feColorMatrix in="SourceAlpha" type="matrix" values="0 0 0 0 0 0 0 0 0 0 0 0 0 0 0 0 0 0 127 0" result="hardAlpha"/>
<feOffset dx="-2.06074" dy="2.06074"/>
<feComposite in2="hardAlpha" operator="out"/>
<feColorMatrix type="matrix" values="0 0 0 0 0 0 0 0 0 0 0 0 0 0 0 0 0 0 0.1 0"/>
<feBlend mode="multiply" in2="BackgroundImageFix" result="effect1_dropShadow"/>
<feBlend mode="normal" in="SourceGraphic" in2="effect1_dropShadow" result="shape"/>
</filter>
<filter id="filter2_ii" x="345" y="136" width="25.5959" height="28.4864" filterUnits="userSpaceOnUse" color-interpolation-filters="sRGB">
<feFlood flood-opacity="0" result="BackgroundImageFix"/>
<feBlend mode="normal" in="SourceGraphic" in2="BackgroundImageFix" result="shape"/>
<feColorMatrix in="SourceAlpha" type="matrix" values="0 0 0 0 0 0 0 0 0 0 0 0 0 0 0 0 0 0 127 0" result="hardAlpha"/>
<feOffset dy="-0.0895218"/>
<feComposite in2="hardAlpha" operator="arithmetic" k2="-1" k3="1"/>
<feColorMatrix type="matrix" values="0 0 0 0 0 0 0 0 0 0 0 0 0 0 0 0 0 0 0.12 0"/>
<feBlend mode="normal" in2="shape" result="effect1_innerShadow"/>
<feColorMatrix in="SourceAlpha" type="matrix" values="0 0 0 0 0 0 0 0 0 0 0 0 0 0 0 0 0 0 127 0" result="hardAlpha"/>
<feOffset dy="0.0895218"/>
<feComposite in2="hardAlpha" operator="arithmetic" k2="-1" k3="1"/>
<feColorMatrix type="matrix" values="0 0 0 0 1 0 0 0 0 1 0 0 0 0 1 0 0 0 0.25 0"/>
<feBlend mode="normal" in2="effect1_innerShadow" result="effect2_innerShadow"/>
</filter>
<filter id="filter3_i" x="345.513" y="150.243" width="18.4971" height="14.2437" filterUnits="userSpaceOnUse" color-interpolation-filters="sRGB">
<feFlood flood-opacity="0" result="BackgroundImageFix"/>
<feBlend mode="normal" in="SourceGraphic" in2="BackgroundImageFix" result="shape"/>
<feColorMatrix in="SourceAlpha" type="matrix" values="0 0 0 0 0 0 0 0 0 0 0 0 0 0 0 0 0 0 127 0" result="hardAlpha"/>
<feOffset dy="-0.0895218"/>
<feComposite in2="hardAlpha" operator="arithmetic" k2="-1" k3="1"/>
<feColorMatrix type="matrix" values="0 0 0 0 0 0 0 0 0 0 0 0 0 0 0 0 0 0 0.08 0"/>
<feBlend mode="normal" in2="shape" result="effect1_innerShadow"/>
</filter>
<linearGradient id="paint0_linear" x1="358.112" y1="137.737" x2="339.525" y2="156.341" gradientUnits="userSpaceOnUse">
<stop stop-color="#00A0FF"/>
<stop offset="0.0066" stop-color="#00A1FF"/>
<stop offset="0.2601" stop-color="#00BEFF"/>
<stop offset="0.5122" stop-color="#00D2FF"/>
<stop offset="0.7604" stop-color="#00DFFF"/>
<stop offset="1" stop-color="#00E3FF"/>
</linearGradient>
<linearGradient id="paint1_linear" x1="371.45" y1="150.243" x2="344.628" y2="150.243" gradientUnits="userSpaceOnUse">
<stop stop-color="#FFE000"/>
<stop offset="0.4087" stop-color="#FFBD00"/>
<stop offset="0.7754" stop-color="#FFA500"/>
<stop offset="1" stop-color="#FF9C00"/>
</linearGradient>
<linearGradient id="paint2_linear" x1="361.467" y1="152.783" x2="336.261" y2="178.012" gradientUnits="userSpaceOnUse">
<stop stop-color="#FF3A44"/>
<stop offset="1" stop-color="#C31162"/>
</linearGradient>
<linearGradient id="paint3_linear" x1="342.034" y1="128.287" x2="353.289" y2="139.552" gradientUnits="userSpaceOnUse">
<stop stop-color="#32A071"/>
<stop offset="0.0685" stop-color="#2DA771"/>
<stop offset="0.4762" stop-color="#15CF74"/>
<stop offset="0.8009" stop-color="#06E775"/>
<stop offset="1" stop-color="#00F076"/>
</linearGradient>
</defs>
</svg>
