<svg width="450" height="259" xmlns="http://www.w3.org/2000/svg">
 <mask height="179" width="265" y="33" x="93" maskUnits="userSpaceOnUse" id="path-2-outside-1">
  <rect id="svg_1" height="179" width="265" y="33" x="93" fill="white"/>
  <path id="svg_2" d="m270.874,209.887c-5.018,0.036 -9.271,-1.34 -13.143,-4.066c-11.29,-7.949 -22.616,-15.846 -33.927,-23.765c-40.471,-28.332 -80.941,-56.664 -121.412,-84.9967c-0.807,-0.5655 -1.65,-1.0901 -2.4063,-1.7185c-0.8926,-0.7419 -1.8035,-1.4969 -2.5407,-2.3841c-3.0581,-3.6801 -3.2465,-8.5095 -0.5708,-12.482c1.2285,-1.8238 2.8586,-3.1975 4.7508,-4.2847c3.031,-1.7417 6.057,-3.492 9.09,-5.231c18.896,-10.8366 37.798,-21.6636 56.686,-32.5147c2.584,-1.485 5.224,-2.7142 8.218,-3.1692c5.376,-0.817 10.306,0.1734 14.892,3.1355c14.76,9.5346 29.548,19.0255 44.325,28.533c37.17,23.9144 74.34,47.8284 111.508,71.7454c1.206,0.776 2.433,1.53 3.574,2.393c2.422,1.832 4.221,4.128 4.987,7.131c1.106,4.332 -0.204,7.968 -3.297,11.017c-0.948,0.935 -2.082,1.7 -3.192,2.452c-18.853,12.773 -37.716,25.532 -56.577,38.294c-3.119,2.11 -6.248,4.206 -9.352,6.337c-3.593,2.466 -7.569,3.617 -11.613,3.574" clip-rule="evenodd" fill-rule="evenodd"/>
 </mask>
 <mask height="163" width="249" y="39" x="102" maskUnits="userSpaceOnUse" id="mask0">
  <path id="svg_3" fill="white" d="m162.195,48.0924c0.738,-0.549 1.196,-0.9623 1.717,-1.2659c2.949,-1.7162 5.873,-3.4798 8.88,-5.0888c5.434,-2.908 10.834,-2.8464 16.076,0.5281c15.175,9.7695 30.341,19.5531 45.51,29.3335c36.75,23.6968 73.5,47.3947 110.249,71.0937c0.68,0.438 1.376,0.855 2.016,1.345c0.639,0.488 1.282,0.999 1.81,1.599c2.319,2.637 2.124,5.766 -0.499,8.095c-0.668,0.593 -1.423,1.095 -2.167,1.595c-21.547,14.462 -43.107,28.906 -64.639,43.391c-2.848,1.916 -5.871,3.033 -9.324,2.973c-3.235,-0.056 -6.183,-0.954 -8.844,-2.807c-3.978,-2.772 -7.967,-5.529 -11.951,-8.294c-47.505,-32.977 -95.011,-65.954 -142.515,-98.9324c-0.885,-0.6144 -1.77,-1.2307 -2.642,-1.8627c-0.436,-0.3154 -0.872,-0.6394 -1.261,-1.0086c-2.354,-2.2325 -2.436,-5.0275 -0.163,-7.3536c0.619,-0.6336 1.361,-1.1799 2.127,-1.6315c3.325,-1.9614 6.687,-3.8587 10.018,-5.8108c1.097,-0.6431 2.105,-0.766 3.282,-0.1208c3.405,1.8658 6.727,1.3933 9.981,-0.4922c7.691,-4.4556 15.395,-8.8882 23.094,-13.331c2.877,-1.6605 5.766,-3.3006 8.621,-4.999c0.84,-0.5 1.662,-1.0863 2.347,-1.7774c0.969,-0.9767 0.976,-2.0705 0.133,-3.1583c-0.487,-0.628 -1.075,-1.1775 -1.856,-2.0193" clip-rule="evenodd" fill-rule="evenodd"/>
 </mask>
 <defs>
  <filter color-interpolation-filters="sRGB" filterUnits="userSpaceOnUse" height="51.9586" width="51.8391" y="47" x="65.9393" id="filter0_d"/>
  <filter color-interpolation-filters="sRGB" filterUnits="userSpaceOnUse" height="54.5472" width="51.6567" y="124" x="330.939" id="filter1_d"/>
  <filter color-interpolation-filters="sRGB" filterUnits="userSpaceOnUse" height="28.4864" width="25.5959" y="136" x="345" id="filter2_ii"/>
  <filter color-interpolation-filters="sRGB" filterUnits="userSpaceOnUse" height="14.2437" width="18.4971" y="150.243" x="345.513" id="filter3_i"/>
  <linearGradient y2="0.719631" x2="-0.382092" y1="0.049627" x1="0.915067" id="paint0_linear">
   <stop stop-color="#00A0FF"/>
   <stop stop-color="#00A1FF" offset="0.0066"/>
   <stop stop-color="#00BEFF" offset="0.2601"/>
   <stop stop-color="#00D2FF" offset="0.5122"/>
   <stop stop-color="#00DFFF" offset="0.7604"/>
   <stop stop-color="#00E3FF" offset="1"/>
  </linearGradient>
  <linearGradient y2="0.499947" x2="-1.304813" y1="0.499947" x1="1.075819" id="paint1_linear">
   <stop stop-color="#FFE000"/>
   <stop stop-color="#FFBD00" offset="0.4087"/>
   <stop stop-color="#FFA500" offset="0.7754"/>
   <stop stop-color="#FF9C00" offset="1"/>
  </linearGradient>
  <linearGradient y2="1.94961" x2="-0.500189" y1="0.178329" x1="0.862518" id="paint2_linear">
   <stop stop-color="#FF3A44"/>
   <stop stop-color="#C31162" offset="1"/>
  </linearGradient>
  <linearGradient y2="0.249374" x2="0.420392" y1="-0.541479" x1="-0.188084" id="paint3_linear">
   <stop stop-color="#32A071"/>
   <stop stop-color="#2DA771" offset="0.0685"/>
   <stop stop-color="#15CF74" offset="0.4762"/>
   <stop stop-color="#06E775" offset="0.8009"/>
   <stop stop-color="#00F076" offset="1"/>
  </linearGradient>
 </defs>
 <g>
  <title>background</title>
  <rect fill="none" id="canvas_background" height="402" width="582" y="-1" x="-1"/>
 </g>
 <g>
  <title>Layer 1</title>
  <rect id="svg_4" fill="white" height="259" width="450"/>
  <path id="svg_5" fill="#E6E6E6" d="m269.874,225.235c-5.018,0.037 -9.271,-1.34 -13.143,-4.066c-11.29,-7.948 -22.616,-15.846 -33.927,-23.764c-40.471,-28.332 -80.941,-56.664 -121.412,-84.997c-0.807,-0.566 -1.6502,-1.09 -2.4063,-1.719c-0.8926,-0.741 -1.8035,-1.496 -2.5407,-2.384c-3.0581,-3.68 -3.2465,-8.5092 -0.5708,-12.4816c1.2285,-1.8239 2.8586,-3.1976 4.7508,-4.2847c3.031,-1.7418 6.057,-3.492 9.09,-5.2311c18.896,-10.8366 37.798,-21.6636 56.686,-32.5147c2.584,-1.4849 5.224,-2.7142 8.218,-3.1691c5.376,-0.8171 10.306,0.1734 14.892,3.1355c14.76,9.5345 29.548,19.0254 44.325,28.5329c37.17,23.9148 74.34,47.8278 111.508,71.7458c1.206,0.776 2.433,1.529 3.574,2.393c2.422,1.831 4.221,4.128 4.987,7.131c1.106,4.332 -0.204,7.968 -3.297,11.017c-0.948,0.935 -2.082,1.699 -3.192,2.452c-18.853,12.773 -37.716,25.531 -56.577,38.293c-3.119,2.111 -6.248,4.206 -9.352,6.337c-3.593,2.466 -7.569,3.618 -11.613,3.574" clip-rule="evenodd" fill-rule="evenodd" opacity="0.7"/>
  <path id="svg_6" fill="white" d="m270.874,209.887c-5.018,0.036 -9.271,-1.34 -13.143,-4.066c-11.29,-7.949 -22.616,-15.846 -33.927,-23.765c-40.471,-28.332 -80.941,-56.664 -121.412,-84.9967c-0.807,-0.5655 -1.65,-1.0901 -2.4063,-1.7185c-0.8926,-0.7419 -1.8035,-1.4969 -2.5407,-2.3841c-3.0581,-3.6801 -3.2465,-8.5095 -0.5708,-12.482c1.2285,-1.8238 2.8586,-3.1975 4.7508,-4.2847c3.031,-1.7417 6.057,-3.492 9.09,-5.231c18.896,-10.8366 37.798,-21.6636 56.686,-32.5147c2.584,-1.485 5.224,-2.7142 8.218,-3.1692c5.376,-0.817 10.306,0.1734 14.892,3.1355c14.76,9.5346 29.548,19.0255 44.325,28.533c37.17,23.9144 74.34,47.8284 111.508,71.7454c1.206,0.776 2.433,1.53 3.574,2.393c2.422,1.832 4.221,4.128 4.987,7.131c1.106,4.332 -0.204,7.968 -3.297,11.017c-0.948,0.935 -2.082,1.7 -3.192,2.452c-18.853,12.773 -37.716,25.532 -56.577,38.294c-3.119,2.11 -6.248,4.206 -9.352,6.337c-3.593,2.466 -7.569,3.617 -11.613,3.574" clip-rule="evenodd" fill-rule="evenodd"/>
  <path id="svg_7" mask="url(#path-2-outside-1)" fill="#242424" d="m257.731,205.821l1.151,-1.636l0,0l-1.151,1.636zm-33.927,-23.765l1.147,-1.638l0,0l-1.147,1.638zm-121.412,-84.9967l1.147,-1.6384l0,-0.0001l-1.147,1.6385zm-2.4063,-1.7185l-1.2785,1.5381l0.0002,0.0001l1.2783,-1.5382zm-2.5407,-2.3841l1.5383,-1.2782l-0.0001,0l-1.5382,1.2782zm-0.5708,-12.482l1.6588,1.1173l0.0001,0l-1.6589,-1.1173zm4.7508,-4.2847l0.996,1.7342l0,-0.0001l-0.996,-1.7341zm9.09,-5.231l0.995,1.735l0,-0.0001l-0.995,-1.7349zm56.686,-32.5147l0.996,1.7342l0,-0.0001l-0.996,-1.7341zm8.218,-3.1692l-0.301,-1.9773l0,0.0001l0.301,1.9772zm14.892,3.1355l1.085,-1.6799l0,0l-1.085,1.6799zm44.325,28.533l1.082,-1.682l0,0l-1.082,1.682zm111.508,71.7454l-1.082,1.682l0,0l1.082,-1.682zm3.574,2.393l-1.206,1.595l0,0.001l1.206,-1.596zm4.987,7.131l1.938,-0.494l0,-0.001l-1.938,0.495zm-3.297,11.017l1.404,1.425l0.001,0l-1.405,-1.425zm-3.192,2.452l-1.122,-1.656l0,0l1.122,1.656zm-56.577,38.294l1.121,1.656l0,0l-1.121,-1.656zm-9.352,6.337l-1.132,-1.649l0,0l1.132,1.649zm-11.628,1.574c-4.6,0.033 -8.445,-1.216 -11.977,-3.702l-2.302,3.271c4.213,2.966 8.873,4.47 14.308,4.431l-0.029,-4zm-11.977,-3.702c-11.292,-7.95 -22.624,-15.852 -33.931,-23.767l-2.294,3.276c11.315,7.922 22.636,15.815 33.923,23.762l2.302,-3.271zm-33.931,-23.767c-40.471,-28.332 -80.941,-56.664 -121.412,-84.9971l-2.294,3.2768c40.471,28.3323 80.941,56.6653 121.412,84.9963l2.294,-3.276zm-121.412,-84.9972c-0.928,-0.6495 -1.603,-1.0595 -2.275,-1.6182l-2.5566,3.0764c0.8399,0.698 1.8506,1.3373 2.5386,1.8188l2.293,-3.277zm-2.275,-1.618c-0.921,-0.7655 -1.6823,-1.4041 -2.2807,-2.1243l-3.0766,2.5564c0.876,1.0542 1.9364,1.9257 2.8005,2.644l2.5568,-3.0761zm-2.2808,-2.1243c-2.4767,-2.9805 -2.6418,-6.8327 -0.4502,-10.0865l-3.3176,-2.2346c-3.1598,4.6912 -2.9482,10.4977 0.6914,14.8776l3.0764,-2.5565zm-0.4501,-10.0865c1.0224,-1.518 2.3999,-2.6981 4.0879,-3.6678l-1.992,-3.4683c-2.0969,1.2046 -3.9791,2.7719 -5.4136,4.9015l3.3177,2.2346zm4.0879,-3.6679c3.041,-1.7474 6.054,-3.4897 9.089,-5.2301l-1.99,-3.47c-3.03,1.7377 -6.07,3.4959 -9.092,5.2319l1.993,3.4682zm9.089,-5.2302c18.895,-10.8359 37.799,-21.6638 56.687,-32.5154l-1.993,-3.4684c-18.886,10.8506 -37.786,21.6767 -56.684,32.5139l1.99,3.4699zm56.687,-32.5155c2.499,-1.4358 4.888,-2.5255 7.522,-2.926l-0.601,-3.9545c-3.352,0.5094 -6.244,1.8782 -8.914,3.4122l1.993,3.4683zm7.522,-2.926c4.911,-0.7463 9.346,0.1505 13.506,2.8382l2.171,-3.3599c-5.01,-3.2365 -10.437,-4.3206 -16.278,-3.4329l0.601,3.9546zm13.506,2.8382c14.762,9.5359 29.554,19.0291 44.329,28.535l2.164,-3.364c-14.78,-9.5091 -29.564,-18.9977 -44.322,-28.5309l-2.171,3.3599zm44.329,28.5349c37.17,23.9145 74.34,47.8285 111.508,71.7455l2.164,-3.364c-37.168,-23.917 -74.338,-47.831 -111.508,-71.7454l-2.164,3.3639zm111.508,71.7455c1.255,0.807 2.387,1.502 3.45,2.306l2.413,-3.19c-1.22,-0.923 -2.542,-1.736 -3.699,-2.48l-2.164,3.364zm3.45,2.307c2.148,1.624 3.625,3.562 4.255,6.03l3.876,-0.99c-0.903,-3.538 -3.024,-6.193 -5.718,-8.231l-2.413,3.191zm4.255,6.03c0.906,3.547 -0.102,6.474 -2.763,9.098l2.809,2.849c3.523,-3.475 5.136,-7.819 3.83,-12.936l-3.876,0.989zm-2.762,9.098c-0.795,0.783 -1.769,1.446 -2.911,2.22l2.244,3.312c1.078,-0.731 2.372,-1.596 3.474,-2.683l-2.807,-2.849zm-2.911,2.22c-18.853,12.773 -37.715,25.531 -56.576,38.293l2.242,3.313c18.86,-12.762 37.724,-25.521 56.578,-38.294l-2.244,-3.312zm-56.576,38.293c-3.108,2.103 -6.252,4.209 -9.363,6.345l2.263,3.298c3.098,-2.126 6.212,-4.212 9.342,-6.33l-2.242,-3.313zm-9.363,6.345c-3.251,2.231 -6.824,3.262 -10.46,3.223l-0.043,4c4.453,0.048 8.832,-1.225 12.766,-3.925l-2.263,-3.298z"/>
  <g id="svg_8" mask="url(#mask0)">
   <path id="svg_9" fill="#FFD249" d="m96.1508,85.6401l83.8692,-48.2251l175.273,112.729l-84.481,57.08l-174.6612,-121.5839z" clip-rule="evenodd" fill-rule="evenodd"/>
  </g>
  <path id="svg_10" fill="#242424" d="m225.219,107.9206l-2.248,-1.5397l-10.532,15.3769l14.314,9.8032l2.442,-1.101l-13.214,-9.0505l9.238,-13.4889z"/>
  <path id="svg_11" fill="#242424" d="m242.52,129.2241l-2.469,-11.4365l-3.261,-2.2329l3.288,14.9173l-4.627,6.755l2.248,1.54l4.628,-6.757l15.064,-2.346l-3.228,-2.2111l-11.643,1.7712z"/>
  <path id="svg_17" fill="#242424" d="m200.247,94.4567l16.159,11.067l2.487,-1.1711l-17.306,-11.8526l-1.34,1.9567z"/>
  <path id="svg_18" fill="#242424" d="m197.559,98.0915l-0.898,1.3107l-4.605,6.7236l2.016,1.3809l4.605,-6.7235l11.419,7.8203l2.491,-1.177l-14.582,-9.987l-0.446,0.652z"/>
  <g id="svg_20" filter="url(#filter0_d)">
   <rect id="svg_21" fill="white" rx="6.86914" height="49.8979" width="49.7783" y="47" x="68"/>
   <path id="svg_22" stroke-width="1.37383" stroke="#242424" fill="white" d="m104.977,67.6633l0.624,-0.3821l-0.421,-0.5987c-1.397,-1.9876 -3.726,-3.2453 -6.1586,-3.3291c-1.3474,-0.1342 -2.6353,0.2691 -3.6675,0.6572c-0.2578,0.0969 -0.4825,0.1859 -0.692,0.2689c-0.2477,0.0982 -0.4741,0.1879 -0.7087,0.2722c-0.4197,0.1508 -0.6915,0.2155 -0.8639,0.2155c-0.1924,0 -0.4533,-0.0566 -0.8132,-0.1797c-0.2604,-0.089 -0.5316,-0.1975 -0.8346,-0.3187c-0.1156,-0.0462 -0.2359,-0.0944 -0.362,-0.144c-0.8732,-0.3434 -1.9535,-0.7303 -3.1063,-0.7067l0,0l-0.008,0.0002c-2.8528,0.0918 -5.5083,1.7029 -6.8991,4.188c-1.4748,2.5466 -1.6364,5.638 -1.1249,8.5267c0.5128,2.8956 1.7154,5.6725 3.0803,7.6585l0,0l0.004,0.0057c0.6503,0.9261 1.399,1.972 2.2561,2.7732c0.8583,0.8023 1.913,1.4423 3.1777,1.3956l0.003,-0.0001c1.0367,-0.0428 1.7861,-0.3578 2.4492,-0.6364c0.0554,-0.0233 0.1102,-0.0463 0.1644,-0.0688c0.6924,-0.2881 1.3688,-0.5397 2.4189,-0.5397c1.0294,0 1.6823,0.2652 2.3833,0.5623c0.0211,0.009 0.0423,0.018 0.0637,0.0271c0.7034,0.2987 1.495,0.6349 2.6438,0.6089c1.2723,-0.0212 2.2844,-0.5949 3.1164,-1.3693c0.817,-0.7598 1.504,-1.7527 2.131,-2.6862c0.981,-1.3871 1.736,-2.9199 2.237,-4.5418l0.184,-0.5944l-0.573,-0.2415c-2.219,-0.9344 -3.703,-3.1624 -3.708,-5.5576c0.03,-2.1286 1.181,-4.1489 3.004,-5.2652zm-5.2922,-11.0988l-0.0541,-0.704l-0.7022,0.0735c-1.924,0.2013 -3.7019,1.1171 -4.9791,2.566c-1.2577,1.4257 -1.911,3.3375 -1.7872,5.2324l0.0415,0.6356l0.6369,0.0065c1.9611,0.0201 3.8828,-0.8834 5.1142,-2.4057c1.2597,-1.5085 1.8805,-3.4469 1.73,-5.4043z"/>
   <rect id="svg_23" stroke-width="2" stroke="#242424" rx="5.86914" height="47.8979" width="47.7783" y="48" x="69"/>
  </g>
  <g id="svg_24" filter="url(#filter1_d)">
   <rect id="svg_25" fill="white" rx="6.86914" height="52.4865" width="49.596" y="124" x="333"/>
   <path id="svg_26" stroke-linejoin="round" stroke-width="1.08052" stroke="#242424" fill="white" d="m369.701,148.175l-5.404,-3.068c-0.007,-0.004 -0.013,-0.008 -0.02,-0.012l-16.194,-9.192c0,0 0,0 0,0c-1.004,-0.57 -2.066,-0.619 -2.816,0.027c-0.017,0.013 -0.035,0.028 -0.051,0.044l-0.027,0.027c-0.012,0.012 -0.025,0.024 -0.037,0.036l-0.018,0.018c-0.005,0.005 -0.009,0.009 -0.013,0.014c-0.444,0.469 -0.661,1.148 -0.661,1.927l0,24.494c0,0.781 0.217,1.458 0.661,1.928c0.002,0.002 0.005,0.005 0.007,0.008c0.744,0.778 1.883,0.766 2.955,0.159l0,0l16.101,-9.141l0.088,-0.049l0,0l0.005,-0.003l5.424,-3.079l0.001,0c0.872,-0.496 1.434,-1.226 1.434,-2.069c0,-0.844 -0.562,-1.573 -1.435,-2.069l0,0z"/>
   <g id="svg_27" filter="url(#filter2_ii)">
    <path id="svg_28" fill="url(#paint0_linear)" d="m345.513,136.44c-0.322,0.341 -0.513,0.871 -0.513,1.556l0,24.495c0,0.686 0.191,1.215 0.513,1.556l0.082,0.079l13.734,-13.721l0,-0.162l0,-0.161l-13.734,-13.723l-0.082,0.081z"/>
    <path id="svg_29" fill="url(#paint1_linear)" d="m363.906,154.98l-4.577,-4.576l0,-0.161l0,-0.162l4.578,-4.574l0.103,0.059l5.424,3.078c1.549,0.88 1.549,2.319 0,3.199l-5.424,3.079l-0.104,0.058z"/>
    <g id="svg_30" filter="url(#filter3_i)">
     <path id="svg_31" fill="url(#paint2_linear)" d="m364.01,154.921l-4.682,-4.678l-13.815,13.803c0.51,0.54 1.354,0.607 2.304,0.069l16.193,-9.194z"/>
    </g>
    <path id="svg_32" fill="url(#paint3_linear)" d="m364.01,145.565l-16.193,-9.193c-0.95,-0.539 -1.794,-0.472 -2.304,0.069l13.816,13.803l4.681,-4.679z"/>
   </g>
   <rect id="svg_33" stroke-width="2" stroke="#242424" rx="5.86914" height="50.4865" width="47.596" y="125" x="334"/>
  </g>
 </g>
</svg>